<svg width="220" height="64" viewBox="0 0 220 64" fill="none" xmlns="http://www.w3.org/2000/svg">
<rect x="0.5" y="0.5" width="63" height="63" rx="7.5" fill="url(#paint0_linear_83_30119)"/>
<rect x="0.5" y="0.5" width="63" height="63" rx="7.5" stroke="url(#paint1_linear_83_30119)"/>
<g clip-path="url(#clip0_83_30119)">
<path d="M44 32C44 25.3726 38.6274 20 32 20C25.3726 20 20 25.3726 20 32C20 37.9895 24.3882 42.954 30.125 43.8542V35.4687H27.0781V32H30.125V29.3562C30.125 26.3488 31.9166 24.6875 34.6576 24.6875C35.9701 24.6875 37.3438 24.9219 37.3438 24.9219V27.875H35.8306C34.34 27.875 33.875 28.8001 33.875 29.75V32H37.2031L36.6711 35.4687H33.875V43.8542C39.6118 42.954 44 37.9895 44 32Z" fill="#9EFF00"/>
</g>
<rect x="78.5" y="0.5" width="63" height="63" rx="7.5" fill="url(#paint2_linear_83_30119)"/>
<rect x="78.5" y="0.5" width="63" height="63" rx="7.5" stroke="url(#paint3_linear_83_30119)"/>
<g clip-path="url(#clip1_83_30119)">
<path d="M105.55 41.7502C114.605 41.7502 119.558 34.2469 119.558 27.7421C119.558 27.5312 119.554 27.3155 119.544 27.1046C120.508 26.4077 121.339 25.5445 122 24.5555C121.103 24.9548 120.15 25.2156 119.174 25.329C120.201 24.7132 120.971 23.7457 121.339 22.606C120.373 23.1788 119.316 23.5829 118.213 23.8009C117.471 23.0118 116.489 22.4894 115.42 22.3143C114.35 22.1392 113.253 22.3213 112.298 22.8323C111.342 23.3434 110.582 24.1549 110.134 25.1416C109.686 26.1282 109.575 27.2349 109.82 28.2905C107.862 28.1923 105.948 27.6839 104.2 26.7983C102.452 25.9127 100.91 24.6697 99.673 23.1498C99.0444 24.2335 98.8521 25.5159 99.135 26.7363C99.418 27.9568 100.155 29.0237 101.196 29.7202C100.415 29.6954 99.65 29.4849 98.9656 29.1062V29.1671C98.9649 30.3044 99.3581 31.4068 100.078 32.287C100.799 33.1672 101.801 33.7708 102.916 33.9952C102.192 34.1934 101.432 34.2222 100.695 34.0796C101.009 35.0577 101.622 35.9131 102.446 36.5266C103.27 37.14 104.265 37.4808 105.292 37.5015C103.548 38.8714 101.394 39.6144 99.1766 39.6109C98.7833 39.6103 98.3904 39.5861 98 39.5387C100.253 40.984 102.874 41.7516 105.55 41.7502Z" fill="#9EFF00"/>
</g>
<rect x="156.5" y="0.5" width="63" height="63" rx="7.5" fill="url(#paint4_linear_83_30119)"/>
<rect x="156.5" y="0.5" width="63" height="63" rx="7.5" stroke="url(#paint5_linear_83_30119)"/>
<g clip-path="url(#clip2_83_30119)">
<path d="M198.223 20H177.772C176.792 20 176 20.7734 176 21.7297V42.2656C176 43.2219 176.792 44 177.772 44H198.223C199.203 44 200 43.2219 200 42.2703V21.7297C200 20.7734 199.203 20 198.223 20ZM183.12 40.4516H179.558V28.9953H183.12V40.4516ZM181.339 27.4344C180.195 27.4344 179.272 26.5109 179.272 25.3719C179.272 24.2328 180.195 23.3094 181.339 23.3094C182.478 23.3094 183.402 24.2328 183.402 25.3719C183.402 26.5062 182.478 27.4344 181.339 27.4344ZM196.452 40.4516H192.894V34.8828C192.894 33.5562 192.87 31.8453 191.042 31.8453C189.191 31.8453 188.909 33.2937 188.909 34.7891V40.4516H185.356V28.9953H188.769V30.5609H188.816C189.289 29.6609 190.452 28.7094 192.181 28.7094C195.786 28.7094 196.452 31.0813 196.452 34.1656V40.4516Z" fill="#9EFF00"/>
</g>
<defs>
<linearGradient id="paint0_linear_83_30119" x1="32" y1="0" x2="32" y2="64" gradientUnits="userSpaceOnUse">
<stop stop-color="#242424"/>
<stop offset="1" stop-color="#242424" stop-opacity="0"/>
</linearGradient>
<linearGradient id="paint1_linear_83_30119" x1="32" y1="0" x2="32" y2="64" gradientUnits="userSpaceOnUse">
<stop stop-color="#2E2E2E"/>
<stop offset="1" stop-color="#2E2E2E" stop-opacity="0"/>
</linearGradient>
<linearGradient id="paint2_linear_83_30119" x1="110" y1="0" x2="110" y2="64" gradientUnits="userSpaceOnUse">
<stop stop-color="#242424"/>
<stop offset="1" stop-color="#242424" stop-opacity="0"/>
</linearGradient>
<linearGradient id="paint3_linear_83_30119" x1="110" y1="0" x2="110" y2="64" gradientUnits="userSpaceOnUse">
<stop stop-color="#2E2E2E"/>
<stop offset="1" stop-color="#2E2E2E" stop-opacity="0"/>
</linearGradient>
<linearGradient id="paint4_linear_83_30119" x1="188" y1="0" x2="188" y2="64" gradientUnits="userSpaceOnUse">
<stop stop-color="#242424"/>
<stop offset="1" stop-color="#242424" stop-opacity="0"/>
</linearGradient>
<linearGradient id="paint5_linear_83_30119" x1="188" y1="0" x2="188" y2="64" gradientUnits="userSpaceOnUse">
<stop stop-color="#2E2E2E"/>
<stop offset="1" stop-color="#2E2E2E" stop-opacity="0"/>
</linearGradient>
<clipPath id="clip0_83_30119">
<rect width="24" height="24" fill="white" transform="translate(20 20)"/>
</clipPath>
<clipPath id="clip1_83_30119">
<rect width="24" height="24" fill="white" transform="translate(98 20)"/>
</clipPath>
<clipPath id="clip2_83_30119">
<rect width="24" height="24" fill="white" transform="translate(176 20)"/>
</clipPath>
</defs>
</svg>
